<?xml version="1.0" standalone="no"?>
<!DOCTYPE svg PUBLIC "-//W3C//DTD SVG 1.1//EN" "http://www.w3.org/Graphics/SVG/1.1/DTD/svg11.dtd" >
<svg xmlns="http://www.w3.org/2000/svg">
<metadata></metadata>
<defs>
<font id="gothammediumregular" horiz-adv-x="1372" >
<font-face units-per-em="2048" ascent="1638" descent="-410" />
<missing-glyph horiz-adv-x="614" />
<glyph horiz-adv-x="2048" />
<glyph horiz-adv-x="2048" />
<glyph unicode="&#xd;" horiz-adv-x="2048" />
<glyph unicode=" "  horiz-adv-x="614" />
<glyph unicode="&#x09;" horiz-adv-x="614" />
<glyph unicode="&#xa0;" horiz-adv-x="614" />
<glyph unicode="!" horiz-adv-x="618" d="M164 1362v72h291v-72l-76 -909h-137zM174 0v281h272v-281h-272z" />
<glyph unicode="&#x22;" horiz-adv-x="997" d="M123 821l47 613h281v-11l-199 -602h-129zM571 821l50 613h280v-11l-201 -602h-129z" />
<glyph unicode="#" horiz-adv-x="1433" d="M80 330v213h221l59 356h-204v213h241l56 322h219l-56 -322h336l54 322h219l-56 -322h183v-213h-219l-60 -356h205v-213h-242l-57 -330h-219l57 330h-336l-55 -330h-219l57 330h-184zM518 543h336l61 356h-335z" />
<glyph unicode="$" horiz-adv-x="1314" d="M100 207l131 186q186 -150 361 -176v401q-230 60 -334 156.5t-104 265.5q0 165 118.5 272t311.5 122v118h178v-122q209 -25 385 -156l-115 -193q-134 101 -278 131v-389q234 -59 339 -159t105 -265q0 -167 -119.5 -273.5t-316.5 -123.5v-203h-178v205q-267 30 -484 203z M395 1055q0 -68 42 -111.5t155 -77.5v361q-94 -7 -145.5 -54.5t-51.5 -117.5zM754 209q96 7 149 54.5t53 121.5q0 72 -43 116.5t-159 78.5v-371z" />
<glyph unicode="%" horiz-adv-x="1738" d="M98 1081q0 154 95.5 261.5t244.5 107.5q148 0 242 -106t94 -259q0 -154 -95.5 -261t-244.5 -107q-148 0 -242 105.5t-94 258.5zM244 0l1048 1434h203l-1049 -1434h-202zM281 1085q0 -90 44.5 -150.5t112.5 -60.5q70 0 112 59t42 148q0 90 -45 150.5t-113 60.5 q-70 0 -111.5 -59t-41.5 -148zM965 348q0 154 95.5 261.5t244.5 107.5q148 0 241.5 -106t93.5 -259q0 -154 -95.5 -261t-244.5 -107q-148 0 -241.5 105.5t-93.5 258.5zM1147 352q0 -90 45 -150.5t113 -60.5q70 0 111.5 59t41.5 148q0 90 -45 150.5t-113 60.5 q-70 0 -111.5 -59t-41.5 -148z" />
<glyph unicode="&#x26;" horiz-adv-x="1425" d="M80 391q0 274 305 404q-62 80 -90.5 151t-28.5 150q0 152 113 257t299 105q168 0 274.5 -99t106.5 -249q0 -255 -316 -375l246 -250q80 119 154 277l190 -100q-99 -199 -194 -328l225 -230l-186 -133l-191 195q-199 -186 -440 -186q-203 0 -335 112.5t-132 298.5z M334 399q0 -92 67.5 -151.5t171.5 -59.5q140 0 271 125l-320 326q-96 -41 -143 -103.5t-47 -136.5zM502 1085q0 -55 23.5 -101.5t84.5 -113.5q114 41 170 95t56 131q0 74 -45.5 119t-118.5 45q-76 0 -123 -49t-47 -126z" />
<glyph unicode="'" horiz-adv-x="550" d="M123 821l47 613h285v-11l-201 -602h-131z" />
<glyph unicode="(" horiz-adv-x="901" d="M129 588q0 287 142 504t425 372l109 -166q-221 -147 -324.5 -315.5t-103.5 -394.5t103.5 -395t324.5 -316l-109 -166q-567 312 -567 877z" />
<glyph unicode=")" horiz-adv-x="901" d="M98 -123q221 147 324.5 316t103.5 395t-103.5 394.5t-324.5 315.5l109 166q567 -313 567 -876q0 -564 -567 -877z" />
<glyph unicode="*" horiz-adv-x="880" d="M119 1008l233 102l-233 102l74 125l204 -149l-28 250h143l-29 -250l205 149l74 -125l-234 -102l234 -102l-74 -125l-205 149l29 -250h-143l28 250l-204 -149z" />
<glyph unicode="+" horiz-adv-x="1310" d="M145 608v226h394v391h233v-391h393v-226h-393v-391h-233v391h-394z" />
<glyph unicode="," horiz-adv-x="550" d="M70 -193q189 38 174 193h-105v281h273v-238q0 -166 -78.5 -247t-237.5 -93z" />
<glyph unicode="-" horiz-adv-x="835" d="M115 506v244h606v-244h-606z" />
<glyph unicode="." horiz-adv-x="550" d="M139 0v281h273v-281h-273z" />
<glyph unicode="/" horiz-adv-x="1067" d="M-51 -262l925 1896h216l-926 -1896h-215z" />
<glyph unicode="0" horiz-adv-x="1482" d="M117 715q0 206 77 374.5t221 268.5t328 100t327.5 -99t219.5 -266.5t76 -373.5q0 -154 -45.5 -290t-126 -236.5t-199 -159t-256.5 -58.5q-184 0 -327 99t-219 267t-76 374zM377 719q0 -144 44.5 -261t128.5 -186t193 -69t192.5 68.5t127 184.5t43.5 259t-44.5 260 t-129 186.5t-193.5 69.5t-192 -68.5t-126.5 -184t-43.5 -259.5z" />
<glyph unicode="1" horiz-adv-x="811" d="M53 1321l385 123h176v-1444h-249v1188l-259 -72z" />
<glyph unicode="2" horiz-adv-x="1255" d="M100 0v199l494 419q151 127 209.5 210t58.5 178q0 103 -65 163t-166 60q-94 0 -169 -51t-163 -164l-178 139q73 103 141.5 165.5t165 99t221.5 36.5q214 0 343.5 -118.5t129.5 -311.5q0 -68 -15.5 -126t-41.5 -107.5t-75.5 -104.5t-102.5 -103t-137 -116l-295 -246h682 v-221h-1037z" />
<glyph unicode="3" horiz-adv-x="1265" d="M88 227l176 164q79 -94 170 -141t207 -47q107 0 177.5 60.5t70.5 158.5q0 106 -88 164.5t-242 58.5h-117l-41 158l387 411h-620v220h948v-189l-399 -409q87 -12 159 -39t133 -73.5t95.5 -121.5t34.5 -172q0 -200 -140 -327.5t-362 -127.5q-342 0 -549 252z" />
<glyph unicode="4" horiz-adv-x="1394" d="M74 502l796 942h215v-916h205v-206h-205v-322h-241v322h-723zM373 528h471v568z" />
<glyph unicode="5" horiz-adv-x="1273" d="M96 195l156 182q187 -172 369 -172q129 0 206.5 68t77.5 182q0 110 -81.5 174.5t-215.5 64.5q-131 0 -264 -63l-151 100l40 703h857v-224h-639l-23 -336q112 41 227 41q107 0 196.5 -28t157.5 -83t106 -142t38 -199q0 -221 -146 -354.5t-384 -133.5q-300 0 -527 220z" />
<glyph unicode="6" horiz-adv-x="1343" d="M117 676q0 133 24.5 250.5t75 215t122.5 168t172.5 109.5t219.5 39q133 0 235.5 -40t202.5 -120l-135 -194q-82 64 -152.5 94.5t-158.5 30.5q-155 0 -245 -125.5t-99 -329.5q68 67 147.5 105.5t194.5 38.5q141 0 253.5 -52t180.5 -156.5t68 -244.5q0 -142 -70.5 -254.5 t-192 -174t-270.5 -61.5q-246 0 -399 150q-87 89 -130.5 216t-43.5 335zM387 453q0 -114 82 -187t215 -73q131 0 209 73.5t78 188.5q0 110 -80.5 181t-212.5 71q-130 0 -210.5 -73.5t-80.5 -180.5z" />
<glyph unicode="7" horiz-adv-x="1247" d="M139 1212v222h1008v-191l-647 -1243h-283l643 1212h-721z" />
<glyph unicode="8" horiz-adv-x="1290" d="M98 391q0 244 258 352q-209 109 -209 322q0 166 141.5 277.5t356.5 111.5t356.5 -111.5t141.5 -277.5q0 -213 -209 -322q125 -58 191.5 -140.5t66.5 -205.5q0 -190 -154 -303.5t-393 -113.5q-156 0 -280 50.5t-195.5 144.5t-71.5 216zM344 408q0 -94 82 -156t219 -62 t219 62t82 156q0 98 -85.5 158.5t-215.5 60.5t-215.5 -60.5t-85.5 -158.5zM389 1042q0 -95 72.5 -155t183.5 -60t183.5 60t72.5 153q0 86 -71 144.5t-185 58.5q-113 0 -184.5 -58t-71.5 -143z" />
<glyph unicode="9" horiz-adv-x="1343" d="M121 961q0 214 149.5 355.5t384.5 141.5q132 0 226.5 -37t171.5 -114q85 -85 129.5 -215t44.5 -334q0 -231 -72.5 -407.5t-213 -276t-329.5 -99.5q-140 0 -249 44.5t-209 127.5l137 193q83 -70 159.5 -102.5t167.5 -32.5q156 0 248.5 124t98.5 326q-126 -151 -336 -151 q-230 0 -369 124.5t-139 332.5zM373 973q0 -115 80 -186.5t213 -71.5q132 0 211 75t79 185q0 116 -82 191t-217 75q-130 0 -207 -76t-77 -192z" />
<glyph unicode=":" horiz-adv-x="571" d="M150 0v281h272v-281h-272zM150 801v280h272v-280h-272z" />
<glyph unicode=";" horiz-adv-x="571" d="M80 -193q189 38 174 193h-104v281h272v-238q0 -166 -78.5 -247t-237.5 -93zM150 801v280h272v-280h-272z" />
<glyph unicode="&#x3c;" horiz-adv-x="1310" d="M143 610v221l977 453v-235l-731 -326l731 -328v-237z" />
<glyph unicode="=" horiz-adv-x="1310" d="M176 350v230h959v-230h-959zM176 862v230h959v-230h-959z" />
<glyph unicode="&#x3e;" horiz-adv-x="1310" d="M190 158v235l732 326l-732 328v237l977 -453v-221z" />
<glyph unicode="?" horiz-adv-x="1107" d="M49 1225q200 227 494 227q217 0 348 -113t131 -305q0 -94 -32 -168.5t-89.5 -123t-129.5 -79t-161 -45.5l-20 -165h-166l-41 331l10 11q379 15 379 231q0 89 -63 143t-172 54q-181 0 -334 -162zM365 0v281h274v-281h-274z" />
<glyph unicode="@" horiz-adv-x="2007" d="M109 561q0 181 70 346t189.5 286t286 193t351.5 72q184 0 350.5 -67.5t284.5 -179t187.5 -259.5t69.5 -305q0 -125 -32 -224t-87.5 -160.5t-126 -93.5t-151.5 -32q-112 0 -188 40.5t-115 103.5q-140 -144 -317 -144q-158 0 -264.5 107t-106.5 280q0 105 39.5 201 t103.5 163.5t149 107.5t173 40q191 0 289 -151l24 123l199 -31l-90 -516q-11 -68 -11 -88q0 -67 43 -106.5t117 -39.5q116 0 193.5 109.5t77.5 310.5q0 112 -39 220.5t-113 200.5t-172 162.5t-224.5 110t-262.5 39.5q-172 0 -324 -65t-259.5 -175t-170 -261t-62.5 -318 q0 -168 62 -318t170.5 -259.5t264.5 -173.5t335 -64q147 0 265.5 33.5t240.5 103.5l37 -61q-253 -154 -543 -154q-129 0 -249.5 32.5t-220.5 90.5t-183 140.5t-140 180.5t-88.5 213t-31.5 236zM719 537q0 -104 60 -163t157 -59q113 0 198 96t85 228q0 97 -61 159t-154 62 q-115 0 -200 -93.5t-85 -229.5z" />
<glyph unicode="A" horiz-adv-x="1617" d="M61 0l631 1444h234l630 -1444h-266l-145 346h-678l-148 -346h-258zM559 569h494l-248 574z" />
<glyph unicode="B" horiz-adv-x="1478" d="M184 0v1434h643q217 0 344 -99t127 -268q0 -216 -204 -322q137 -46 210.5 -128.5t73.5 -221.5q0 -190 -143 -292.5t-387 -102.5h-664zM432 223h418q131 0 203.5 51t72.5 148q0 94 -74 144t-221 50h-399v-393zM432 829h344q125 0 198 50t73 147q0 88 -65.5 136t-186.5 48 h-363v-381z" />
<glyph unicode="C" horiz-adv-x="1511" d="M121 715q0 152 55 288.5t151 237t235 159t298 58.5q185 0 316.5 -57.5t244.5 -165.5l-161 -186q-94 86 -190 132t-212 46q-134 0 -243 -67.5t-169.5 -184t-60.5 -256.5t60.5 -257t169.5 -186t243 -69q124 0 217.5 46t194.5 140l162 -164q-80 -83 -158.5 -136t-186 -85.5 t-237.5 -32.5q-154 0 -290 58t-232 156.5t-151.5 235.5t-55.5 290z" />
<glyph unicode="D" horiz-adv-x="1601" d="M184 0v1434h535q166 0 309 -55t242 -150t155 -227t56 -283t-56 -283.5t-155 -228.5t-242 -151.5t-309 -55.5h-535zM436 229h283q224 0 361 136t137 350q0 215 -137.5 352t-360.5 137h-283v-975z" />
<glyph unicode="E" d="M184 0v1434h1063v-226h-811v-372h719v-226h-719v-385h821v-225h-1073z" />
<glyph unicode="F" horiz-adv-x="1343" d="M184 0v1434h1067v-230h-815v-391h723v-229h-723v-584h-252z" />
<glyph unicode="G" horiz-adv-x="1605" d="M121 715q0 150 55.5 286t151.5 237t235 160.5t297 59.5q180 0 307.5 -47.5t243.5 -146.5l-160 -191q-92 78 -182.5 116t-218.5 38q-129 0 -236.5 -68.5t-168 -185t-60.5 -254.5q0 -225 134.5 -369.5t352.5 -144.5q203 0 347 108v269h-367v219h610v-602 q-261 -224 -598 -224q-220 0 -390.5 97.5t-261.5 265.5t-91 377z" />
<glyph unicode="H" horiz-adv-x="1556" d="M184 0v1434h252v-596h684v596h252v-1434h-252v604h-684v-604h-252z" />
<glyph unicode="I" horiz-adv-x="649" d="M199 0v1434h252v-1434h-252z" />
<glyph unicode="J" horiz-adv-x="1144" d="M43 211l166 170q67 -84 134.5 -126t154.5 -42q105 0 166 71.5t61 209.5v940h258v-947q0 -248 -130.5 -377.5t-350.5 -129.5q-291 0 -459 231z" />
<glyph unicode="K" horiz-adv-x="1484" d="M184 0v1434h252v-721l682 721h309l-596 -617l623 -817h-305l-490 645l-223 -229v-416h-252z" />
<glyph unicode="L" horiz-adv-x="1267" d="M184 0v1434h252v-1205h754v-229h-1006z" />
<glyph unicode="M" horiz-adv-x="1777" d="M184 0v1434h269l436 -678l436 678h268v-1434h-252v1028l-452 -676h-8l-449 672v-1024h-248z" />
<glyph unicode="N" horiz-adv-x="1617" d="M184 0v1434h234l768 -992v992h248v-1434h-211l-791 1020v-1020h-248z" />
<glyph unicode="O" horiz-adv-x="1740" d="M121 715q0 202 95 371.5t268 270.5t388 101q161 0 301.5 -58.5t238 -158.5t153 -235.5t55.5 -286.5t-56 -287.5t-154 -237t-239.5 -160t-302.5 -59.5t-301.5 59t-237.5 159t-152.5 235.5t-55.5 286.5zM385 719q0 -140 61.5 -256.5t174 -186t251.5 -69.5t250.5 68.5 t172.5 184t61 255.5t-62 256.5t-174.5 186t-251.5 69.5t-250.5 -68.5t-172 -184t-60.5 -255.5z" />
<glyph unicode="P" horiz-adv-x="1368" d="M184 0v1434h566q250 0 397 -131t147 -351q0 -157 -78.5 -270t-206 -167t-288.5 -54h-285v-461h-252zM436 688h293q142 0 225.5 71t83.5 187q0 125 -82.5 191.5t-226.5 66.5h-293v-516z" />
<glyph unicode="Q" horiz-adv-x="1740" d="M121 715q0 202 95 371.5t268 270.5t388 101q161 0 301.5 -58.5t238 -158.5t153 -235.5t55.5 -286.5q0 -246 -145 -443l163 -139l-161 -180l-172 154q-196 -136 -437 -136q-161 0 -301.5 59t-237.5 159t-152.5 235.5t-55.5 286.5zM385 719q0 -140 61.5 -256.5t174 -186 t251.5 -69.5q137 0 246 69l-246 209l162 185l248 -226q74 115 74 271q0 140 -62 256.5t-174.5 186t-251.5 69.5t-250.5 -68.5t-172 -184t-60.5 -255.5z" />
<glyph unicode="R" horiz-adv-x="1480" d="M184 0v1434h639q247 0 390 -122t143 -333q0 -172 -92 -282.5t-250 -153.5l387 -543h-297l-352 500h-316v-500h-252zM436 723h369q135 0 215 66t80 176q0 117 -78 178t-219 61h-367v-481z" />
<glyph unicode="S" horiz-adv-x="1310" d="M88 209l152 180q107 -93 215 -139.5t237 -46.5q117 0 185.5 49.5t68.5 132.5q0 55 -25 91t-95.5 68t-202.5 62q-98 24 -167.5 48t-131.5 58.5t-99 78.5t-58.5 105t-21.5 140q0 186 137.5 302t352.5 116q297 0 520 -180l-135 -191q-199 148 -389 148q-107 0 -170.5 -49 t-63.5 -123q0 -86 68.5 -132.5t271.5 -95.5q239 -58 350 -153t111 -268q0 -199 -141.5 -314.5t-370.5 -115.5q-342 0 -598 229z" />
<glyph unicode="T" horiz-adv-x="1327" d="M82 1200v234h1163v-234h-454v-1200h-254v1200h-455z" />
<glyph unicode="U" horiz-adv-x="1550" d="M162 608v826h252v-816q0 -197 95.5 -303t266.5 -106q170 0 265.5 102t95.5 297v826h252v-813q0 -314 -164.5 -479t-452.5 -165q-285 0 -447.5 162t-162.5 469z" />
<glyph unicode="V" horiz-adv-x="1536" d="M61 1434h279l432 -1102l430 1102h273l-596 -1444h-222z" />
<glyph unicode="W" horiz-adv-x="2285" d="M74 1434h272l342 -1063l352 1067h213l353 -1067l342 1063h264l-500 -1444h-217l-352 1030l-352 -1030h-218z" />
<glyph unicode="X" horiz-adv-x="1492" d="M76 0l522 729l-502 705h297l357 -514l358 514h289l-500 -701l520 -733h-297l-377 543l-378 -543h-289z" />
<glyph unicode="Y" horiz-adv-x="1466" d="M37 1434h297l401 -635l406 635h289l-570 -863v-571h-254v565z" />
<glyph unicode="Z" horiz-adv-x="1437" d="M133 0v186l846 1024h-819v224h1147v-187l-846 -1024h846v-223h-1174z" />
<glyph unicode="[" horiz-adv-x="929" d="M180 -266v1700h629v-195h-393v-1311h393v-194h-629z" />
<glyph unicode="\" horiz-adv-x="1067" d="M-23 1634h216l925 -1896h-215z" />
<glyph unicode="]" horiz-adv-x="929" d="M121 -72h393v1311h-393v195h631v-1700h-631v194z" />
<glyph unicode="^" horiz-adv-x="1024" d="M115 1010l309 426h176l309 -426h-190l-209 270l-209 -270h-186z" />
<glyph unicode="_" horiz-adv-x="1228" d="M-4 -135h1237v-193h-1237v193z" />
<glyph unicode="`" horiz-adv-x="1024" d="M254 1454l225 100l217 -335h-192z" />
<glyph unicode="a" horiz-adv-x="1202" d="M82 311v4q0 169 120.5 259t317.5 90q156 0 299 -46v27q0 113 -68.5 172.5t-197.5 59.5q-146 0 -309 -68l-68 199q100 45 194.5 67.5t217.5 22.5q236 0 355.5 -118.5t119.5 -338.5v-641h-246v133q-131 -156 -350 -156q-162 0 -273.5 89t-111.5 245zM328 324q0 -74 59 -117 t150 -43q124 0 205 63.5t81 163.5v68q-108 43 -248 43q-117 0 -182 -45.5t-65 -128.5v-4z" />
<glyph unicode="b" d="M156 0v1495h247v-594q144 203 367 203q97 0 187 -38t161 -107.5t113.5 -178t42.5 -239.5t-42.5 -239.5t-113 -178.5t-160.5 -108t-188 -38q-222 0 -367 191v-168h-247zM397 541q0 -154 93 -251t223 -97q131 0 220 95.5t89 252.5q0 156 -89.5 252t-219.5 96t-223 -97 t-93 -251z" />
<glyph unicode="c" horiz-adv-x="1169" d="M96 537q0 153 72 283t201.5 207t287.5 77q145 0 248.5 -48t184.5 -138l-154 -166q-63 66 -128 100.5t-153 34.5q-133 0 -222 -101t-89 -245q0 -148 91.5 -249.5t232.5 -101.5q82 0 149 35t131 101l150 -148q-88 -99 -191.5 -151t-251.5 -52q-158 0 -286.5 76 t-200.5 204.5t-72 281.5z" />
<glyph unicode="d" d="M100 541q0 131 42 239.5t112.5 178t160 107.5t187.5 38q220 0 369 -191v582h248v-1495h-248v180q-144 -203 -369 -203q-96 0 -185.5 38t-160.5 108t-113.5 178.5t-42.5 239.5zM350 541q0 -155 91 -251.5t221 -96.5q129 0 221 97t92 251t-92 251t-221 97q-132 0 -222 -95 t-90 -253z" />
<glyph unicode="e" horiz-adv-x="1236" d="M96 539q0 155 67 284t189 205t273 76q125 0 225.5 -47t163.5 -128t96 -185.5t33 -223.5q0 -17 -4 -67h-795q21 -130 105 -202.5t206 -72.5q88 0 157 31.5t136 97.5l146 -129q-168 -203 -443 -203q-156 0 -282 70t-199.5 199.5t-73.5 294.5zM342 616h555 q-13 126 -84.5 205.5t-189.5 79.5q-112 0 -187.5 -78.5t-93.5 -206.5z" />
<glyph unicode="f" horiz-adv-x="770" d="M74 868v207h137v78q0 176 85 265t247 89q104 0 200 -28v-209q-80 26 -145 26q-143 0 -143 -163v-60h286v-205h-282v-868h-248v868h-137z" />
<glyph unicode="g" d="M100 594q0 117 41.5 215t110.5 161.5t157 98.5t183 35q126 0 216.5 -49.5t162.5 -134.5v161h248v-860q0 -553 -582 -553q-270 0 -483 129l92 187q184 -115 385 -115q166 0 254 85t88 247v84q-74 -96 -164.5 -147.5t-216.5 -51.5q-96 0 -184 34.5t-157 98t-110 161 t-41 214.5zM350 596q0 -133 88.5 -217t218.5 -84q132 0 225 84t93 215q0 133 -92.5 217t-225.5 84q-131 0 -219 -83t-88 -216z" />
<glyph unicode="h" horiz-adv-x="1269" d="M156 0v1495h247v-582q131 191 338 191q181 0 283 -112.5t102 -303.5v-688h-247v614q0 126 -61 195.5t-171 69.5q-109 0 -176.5 -72.5t-67.5 -196.5v-610h-247z" />
<glyph unicode="i" horiz-adv-x="585" d="M160 1247v236h266v-236h-266zM170 0v1081h248v-1081h-248z" />
<glyph unicode="j" horiz-adv-x="585" d="M-16 -125q37 -6 69 -6q117 0 117 131v1081h248v-1095q0 -320 -316 -320q-53 0 -118 10v199zM160 1247v236h266v-236h-266z" />
<glyph unicode="k" horiz-adv-x="1191" d="M156 0v1495h247v-893l449 479h301l-430 -440l444 -641h-286l-326 467l-152 -158v-309h-247z" />
<glyph unicode="l" horiz-adv-x="585" d="M170 0v1495h248v-1495h-248z" />
<glyph unicode="m" horiz-adv-x="1945" d="M156 0v1081h247v-163q62 86 139.5 136t190.5 50q114 0 196 -51t126 -140q146 191 366 191q178 0 278.5 -108.5t100.5 -305.5v-690h-248v614q0 128 -57 196.5t-162 68.5q-104 0 -167.5 -70.5t-63.5 -198.5v-610h-248v616q0 125 -58 194t-161 69q-104 0 -168 -73t-64 -198 v-608h-247z" />
<glyph unicode="n" horiz-adv-x="1269" d="M156 0v1081h247v-168q131 191 338 191q181 0 283 -112.5t102 -303.5v-688h-247v614q0 126 -61 195.5t-171 69.5q-109 0 -176.5 -72.5t-67.5 -196.5v-610h-247z" />
<glyph unicode="o" horiz-adv-x="1345" d="M96 537q0 115 44 219.5t120 181t184 121.5t230 45t229.5 -44.5t183 -120t119 -179.5t43.5 -219t-44 -219t-120 -180.5t-184 -121.5t-231 -45q-162 0 -294 76t-206 204.5t-74 281.5zM344 541q0 -147 93.5 -249t236.5 -102q147 0 237 100t90 247t-93.5 248.5t-237.5 101.5 q-146 0 -236 -100t-90 -246z" />
<glyph unicode="p" d="M156 -328v1409h247v-180q144 203 367 203q97 0 187 -38t161 -107.5t113.5 -178t42.5 -239.5t-42.5 -239.5t-113 -178.5t-160.5 -108t-188 -38q-222 0 -367 191v-496h-247zM397 541q0 -154 93 -251t223 -97q131 0 220 95.5t89 252.5q0 156 -89.5 252t-219.5 96t-223 -97 t-93 -251z" />
<glyph unicode="q" d="M100 541q0 131 42 239.5t112.5 178t160 107.5t187.5 38q220 0 369 -191v168h248v-1409h-248v508q-144 -203 -369 -203q-96 0 -185.5 38t-160.5 108t-113.5 178.5t-42.5 239.5zM350 541q0 -155 91 -251.5t221 -96.5q129 0 221 97t92 251t-92 251t-221 97q-132 0 -222 -95 t-90 -253z" />
<glyph unicode="r" horiz-adv-x="845" d="M156 0v1081h247v-243q54 128 150 199q89 65 212 65h21v-262h-14q-168 0 -268.5 -109.5t-100.5 -318.5v-412h-247z" />
<glyph unicode="s" horiz-adv-x="1024" d="M68 141l110 168q177 -133 354 -133q79 0 123.5 31.5t44.5 85.5v4q0 28 -16.5 50t-49.5 39t-66.5 29t-84.5 27q-16 5 -24 7q-57 16 -97.5 30.5t-89.5 41t-79 57.5t-51 79.5t-21 108.5v4q0 150 109.5 240t275.5 90q100 0 205 -32.5t192 -90.5l-98 -176q-168 102 -305 102 q-71 0 -111.5 -30t-40.5 -78v-4q0 -26 15 -47t55.5 -40.5t64.5 -28t88 -29.5q14 -5 21 -7q56 -17 96.5 -32.5t89 -43t78.5 -58.5t51 -78t21 -103v-5q0 -164 -112.5 -251.5t-289.5 -87.5q-118 0 -238.5 41.5t-219.5 119.5z" />
<glyph unicode="t" horiz-adv-x="839" d="M70 868v213h137v297h248v-297h290v-213h-290v-530q0 -135 133 -135q80 0 153 37v-203q-96 -55 -223 -55q-311 0 -311 317v569h-137z" />
<glyph unicode="u" horiz-adv-x="1269" d="M143 393v688h248v-614q0 -126 61 -195t171 -69q109 0 176 72t67 196v610h248v-1081h-248v168q-131 -191 -338 -191q-181 0 -283 112.5t-102 303.5z" />
<glyph unicode="v" horiz-adv-x="1218" d="M53 1081h266l291 -794l293 794h260l-442 -1089h-223z" />
<glyph unicode="w" horiz-adv-x="1763" d="M66 1081h253l218 -741l239 745h211l242 -745l221 741h248l-355 -1089h-221l-241 739l-244 -739h-221z" />
<glyph unicode="x" horiz-adv-x="1187" d="M61 0l398 549l-383 532h270l250 -356l250 356h264l-383 -526l399 -555h-270l-266 379l-264 -379h-265z" />
<glyph unicode="y" horiz-adv-x="1220" d="M53 1081h264l308 -802l280 802h258l-430 -1112q-65 -166 -145.5 -234.5t-210.5 -68.5q-134 0 -256 66l84 184q74 -41 145 -41q53 0 88.5 28t65.5 97z" />
<glyph unicode="z" horiz-adv-x="1146" d="M106 0v170l625 709h-602v202h918v-170l-625 -708h625v-203h-941z" />
<glyph unicode="{" horiz-adv-x="997" d="M106 494v188h54q126 0 178.5 52t52.5 173q0 18 -2 75.5t-2 72.5q0 83 20.5 144t72 113.5t143 89.5t229.5 62l43 -164q-93 -26 -147.5 -50.5t-84 -59.5t-38.5 -72t-9 -98q0 -20 2.5 -75t2.5 -77q0 -115 -53.5 -180.5t-159.5 -99.5q108 -35 160.5 -100t52.5 -181 q0 -22 -2.5 -76.5t-2.5 -74.5q0 -61 9 -98.5t38.5 -72t84 -59.5t147.5 -51l-43 -164q-138 25 -230 62t-143 90t-71.5 114t-20.5 144q0 15 2 72t2 75q0 121 -52.5 173.5t-178.5 52.5h-54z" />
<glyph unicode="|" horiz-adv-x="677" d="M240 -262v1896h198v-1896h-198z" />
<glyph unicode="}" horiz-adv-x="997" d="M102 -125q93 26 147.5 51t84 59.5t38.5 72t9 98.5q0 20 -2 74.5t-2 76.5q0 115 53.5 181t159.5 100q-108 35 -160.5 100t-52.5 180q0 22 2 77t2 75q0 61 -9 98t-38.5 72t-84 59.5t-147.5 50.5l43 164q138 -25 229.5 -62t143 -89.5t72 -113.5t20.5 -144q0 -15 -2 -72.5 t-2 -75.5q0 -121 52.5 -173t179.5 -52h53v-188h-53q-126 0 -179 -52.5t-53 -173.5q0 -18 2 -75t2 -72q0 -83 -20.5 -144t-71.5 -114t-143 -90t-230 -62z" />
<glyph unicode="~" horiz-adv-x="1013" d="M121 512q36 130 87.5 192t141.5 62q62 0 162 -41t131 -41q42 0 66 23t47 79l137 -41q-36 -132 -87.5 -194t-141.5 -62q-62 0 -162 41t-131 41q-42 0 -66 -23t-47 -79z" />
<glyph unicode="&#xa1;" horiz-adv-x="618" d="M164 0v72l78 909h137l76 -909v-72h-291zM174 1153v281h272v-281h-272z" />
<glyph unicode="&#xa2;" horiz-adv-x="1189" d="M106 725q0 153 72 282.5t201 206t287 76.5h18l31 156h180l-37 -182q129 -37 242 -160l-150 -160q-81 77 -143 100l-129 -661q6 -2 20 -2q137 8 260 131l144 -141q-86 -98 -190 -152t-244 -55q-17 0 -25 2l-33 -178h-180l41 207q-163 59 -264 204t-101 326zM348 729 q0 -103 47 -186.5t127 -126.5l127 659h-4q-128 -6 -212.5 -105.5t-84.5 -240.5z" />
<glyph unicode="&#xa3;" horiz-adv-x="1318" d="M129 0v160l162 49v360h-162v213h162v189q0 225 124 354t347 129q158 0 263.5 -60t188.5 -169l-192 -154q-60 77 -118.5 113.5t-139.5 36.5q-102 0 -160.5 -68.5t-58.5 -187.5v-183h510v-213h-510v-350h665v-219h-1081z" />
<glyph unicode="&#xa4;" horiz-adv-x="1474" d="M106 461v174h158q-2 27 -2 80q0 63 4 94h-160v174h193q64 214 217 344.5t365 130.5q91 0 167 -19.5t136 -57.5t106 -84t90 -109l-190 -141q-70 96 -141.5 141t-174.5 45q-107 0 -189 -66.5t-124 -183.5h438v-174h-479q-4 -58 -4 -90q0 -26 4 -84h479v-174h-442 q42 -122 129 -191t205 -69q66 0 121.5 24t98 63.5t93.5 106.5l180 -131q-63 -91 -129 -151.5t-160 -99t-206 -38.5q-223 0 -379.5 132t-216.5 354h-187z" />
<glyph unicode="&#xa5;" horiz-adv-x="1404" d="M39 1434h293l375 -600l374 600h285l-475 -711h328v-182h-396v-150h396v-182h-396v-209h-241v209h-396v182h396v150h-396v182h326z" />
<glyph unicode="&#xa7;" horiz-adv-x="1294" d="M119 717q0 180 219 239q-113 72 -113 197q0 138 107.5 219.5t294.5 81.5q289 0 473 -194l-142 -140q-156 146 -329 146q-82 0 -124 -28.5t-42 -74.5t55 -77t215 -68q242 -55 342.5 -122t100.5 -179q0 -180 -220 -240q113 -72 113 -196q0 -138 -107 -219.5t-294 -81.5 q-289 0 -473 194l141 139q155 -145 330 -145q82 0 123.5 28t41.5 74t-55 77.5t-215 68.5q-241 55 -341.5 122t-100.5 179zM342 752q0 -46 55 -80t185 -66q143 -37 213 -37q72 0 114.5 32t42.5 81q0 46 -54.5 79.5t-184.5 65.5q-145 37 -213 37q-72 0 -115 -32t-43 -80z" />
<glyph unicode="&#xa8;" horiz-adv-x="1024" d="M182 1219v241h252v-241h-252zM590 1219v241h252v-241h-252z" />
<glyph unicode="&#xa9;" horiz-adv-x="1699" d="M109 715q0 150 58 287t157 237t237 159.5t291 59.5t290.5 -59t235.5 -158t155.5 -235.5t57.5 -286.5q0 -200 -98 -371t-269.5 -272t-375.5 -101t-374.5 100t-267.5 270t-97 370zM186 715q0 -136 51 -259t138.5 -212.5t210.5 -142t262 -52.5q186 0 339 90t239.5 243.5 t86.5 336.5q0 182 -86 334.5t-238 241.5t-337 89q-186 0 -339.5 -90t-240 -243.5t-86.5 -335.5zM465 725q0 168 112.5 285.5t284.5 117.5q102 0 173 -30.5t132 -89.5l-96 -111q-102 92 -209 92q-104 0 -172.5 -76t-68.5 -186q0 -109 69 -185.5t172 -76.5q65 0 113 23.5 t100 72.5l99 -96q-66 -69 -139.5 -104t-176.5 -35q-168 0 -280.5 115.5t-112.5 283.5z" />
<glyph unicode="&#xaa;" horiz-adv-x="798" d="M109 578v118h553v-118h-553zM115 1012q0 94 66.5 143t178.5 49q74 0 156 -22v10q0 60 -37 92.5t-106 32.5q-73 0 -170 -39l-39 111q108 51 229 51q129 0 194.5 -64.5t65.5 -185.5v-352h-139v69q-72 -82 -188 -82q-90 0 -150.5 49.5t-60.5 137.5zM256 1018q0 -42 29.5 -65 t76.5 -23q66 0 110 34.5t44 88.5v37q-64 22 -129 22q-62 0 -96.5 -25t-34.5 -69z" />
<glyph unicode="&#xab;" horiz-adv-x="1241" d="M90 532v17l340 450l188 -96l-270 -360l270 -363l-188 -96zM606 532v17l338 450l189 -96l-271 -360l271 -363l-189 -96z" />
<glyph unicode="&#xad;" horiz-adv-x="835" d="M115 506v244h606v-244h-606z" />
<glyph unicode="&#xae;" horiz-adv-x="1699" d="M109 715q0 150 58 287t157 237t237 159.5t291 59.5t290.5 -59t235.5 -158t155.5 -235.5t57.5 -286.5q0 -200 -98 -371t-269.5 -272t-375.5 -101t-374.5 100t-267.5 270t-97 370zM186 715q0 -136 51 -259t138.5 -212.5t210.5 -142t262 -52.5q186 0 339 90t239.5 243.5 t86.5 336.5q0 182 -86 334.5t-238 241.5t-337 89q-186 0 -339.5 -90t-240 -243.5t-86.5 -335.5zM551 350v776h346q137 0 218 -65.5t81 -181.5q0 -92 -48.5 -152t-131.5 -84l209 -293h-176l-189 268h-162v-268h-147zM698 748h193q72 0 112.5 32.5t40.5 89.5q0 59 -40 91 t-113 32h-193v-245z" />
<glyph unicode="&#xaf;" horiz-adv-x="1024" d="M162 1229v182h700v-182h-700z" />
<glyph unicode="&#xb0;" horiz-adv-x="964" d="M141 1114q0 133 103 232.5t237 99.5q136 0 239 -99.5t103 -232.5q0 -134 -103 -234t-239 -100q-134 0 -237 100t-103 234zM289 1114q0 -81 55 -140t137 -59q83 0 139 59t56 140q0 80 -56 138.5t-139 58.5q-82 0 -137 -58.5t-55 -138.5z" />
<glyph unicode="&#xb1;" horiz-adv-x="1249" d="M80 225l174 162q163 -184 387 -184q118 0 187 56.5t69 152.5q0 99 -82.5 151.5t-232.5 52.5h-154v213h160q124 0 197 56.5t73 150.5q0 87 -67 141t-181 54q-97 0 -173 -45t-152 -135l-176 143q100 130 218 197t287 67q221 0 357.5 -108t136.5 -277q0 -234 -213 -338 q252 -97 252 -325q0 -190 -138 -312.5t-372 -122.5q-169 0 -312 66.5t-245 183.5z" />
<glyph unicode="&#xb4;" horiz-adv-x="1024" d="M328 1219l217 335l225 -100l-250 -235h-192z" />
<glyph unicode="&#xb5;" horiz-adv-x="1740" d="M121 715q0 202 95 371.5t268 270.5t388 101q161 0 301.5 -58.5t238 -158.5t153 -235.5t55.5 -286.5q0 -161 -64.5 -305t-181.5 -248l359 -356v-17h-369l-238 227q-124 -45 -258 -45q-161 0 -301.5 59t-237.5 159t-152.5 235.5t-55.5 286.5zM385 719q0 -140 61.5 -256.5 t174 -186t251.5 -69.5t250.5 68.5t172.5 184t61 255.5t-62 256.5t-174.5 186t-251.5 69.5t-250.5 -68.5t-172 -184t-60.5 -255.5z" />
<glyph unicode="&#xb6;" horiz-adv-x="1140" d="M82 967q0 217 152.5 342t402.5 125h326v-1434h-254v500h-37q-171 0 -302.5 52t-209.5 159t-78 256z" />
<glyph unicode="&#xb7;" horiz-adv-x="550" d="M139 487v281h273v-281h-273z" />
<glyph unicode="&#xb8;" horiz-adv-x="1024" d="M268 -248l185 268h186l-154 -358z" />
<glyph unicode="&#xba;" horiz-adv-x="798" d="M90 1133q0 130 89.5 220.5t221.5 90.5q131 0 219.5 -89.5t88.5 -219.5t-90 -221t-222 -91q-131 0 -219 90t-88 220zM104 578v118h590v-118h-590zM233 1135q0 -76 48 -130.5t120 -54.5q73 0 118.5 53t45.5 130q0 76 -48 130t-120 54q-73 0 -118.5 -52.5t-45.5 -129.5z" />
<glyph unicode="&#xbb;" horiz-adv-x="1241" d="M109 178l270 361l-270 362l188 98l338 -450v-17l-338 -448zM623 178l270 361l-270 362l188 98l340 -450v-17l-340 -448z" />
<glyph unicode="&#xbf;" horiz-adv-x="1107" d="M86 399q0 94 32 168.5t89.5 123t129.5 79t161 45.5l20 166h166l41 -332l-10 -10q-379 -15 -379 -231q0 -89 63 -143t172 -54q181 0 334 162l154 -164q-200 -227 -494 -227q-217 0 -348 112.5t-131 304.5zM469 1153v281h274v-281h-274z" />
<glyph unicode="&#xc0;" horiz-adv-x="1617" d="M61 0l631 1444h234l630 -1444h-266l-145 346h-678l-148 -346h-258zM469 1788l225 100l217 -336h-192zM559 569h494l-248 574z" />
<glyph unicode="&#xc1;" horiz-adv-x="1617" d="M61 0l631 1444h234l630 -1444h-266l-145 346h-678l-148 -346h-258zM559 569h494l-248 574zM707 1552l217 336l225 -100l-250 -236h-192z" />
<glyph unicode="&#xc2;" horiz-adv-x="1617" d="M61 0l631 1444h234l630 -1444h-266l-145 346h-678l-148 -346h-258zM457 1550l237 299h230l237 -299h-196l-158 138l-158 -138h-192zM559 569h494l-248 574z" />
<glyph unicode="&#xc3;" horiz-adv-x="1617" d="M61 0l631 1444h234l630 -1444h-266l-145 346h-678l-148 -346h-258zM422 1573q36 132 87.5 194t141.5 62q61 0 162 -41t133 -41q42 0 65 22.5t48 79.5l137 -43q-36 -130 -87.5 -192t-141.5 -62q-61 0 -162 41t-133 41q-42 0 -65 -22.5t-48 -79.5zM559 569h494l-248 574z " />
<glyph unicode="&#xc4;" horiz-adv-x="1617" d="M61 0l631 1444h234l630 -1444h-266l-145 346h-678l-148 -346h-258zM479 1552v242h252v-242h-252zM559 569h494l-248 574zM887 1552v242h252v-242h-252z" />
<glyph unicode="&#xc5;" horiz-adv-x="1617" d="M61 0l611 1401q-97 72 -97 180q0 91 70.5 158t163.5 67t163 -66.5t70 -158.5q0 -108 -96 -180l610 -1401h-266l-145 346h-678l-148 -346h-258zM559 569h494l-248 574zM682 1581q0 -53 37 -90t90 -37t90 37t37 90t-37 90t-90 37t-90 -37t-37 -90z" />
<glyph unicode="&#xc6;" horiz-adv-x="2140" d="M25 0l800 1434h1190v-226h-766v-372h674v-226h-674v-385h776v-225h-1028v346h-522l-190 -346h-260zM596 569h401v645h-41z" />
<glyph unicode="&#xc7;" horiz-adv-x="1511" d="M121 715q0 152 55 288.5t151 237t235 159t298 58.5q185 0 316.5 -57.5t244.5 -165.5l-161 -186q-94 86 -190 132t-212 46q-134 0 -243 -67.5t-169.5 -184t-60.5 -256.5t60.5 -257t169.5 -186t243 -69q124 0 217.5 46t194.5 140l162 -164q-113 -118 -238.5 -181.5 t-298.5 -70.5l-135 -315l-215 90l162 238q-258 47 -422 249.5t-164 475.5z" />
<glyph unicode="&#xc8;" d="M184 0v1434h1063v-226h-811v-372h719v-226h-719v-385h821v-225h-1073zM420 1788l225 100l217 -336h-192z" />
<glyph unicode="&#xc9;" d="M184 0v1434h1063v-226h-811v-372h719v-226h-719v-385h821v-225h-1073zM567 1552l217 336l226 -100l-250 -236h-193z" />
<glyph unicode="&#xca;" d="M184 0v1434h1063v-226h-811v-372h719v-226h-719v-385h821v-225h-1073zM358 1552l238 299h229l238 -299h-197l-157 138l-158 -138h-193z" />
<glyph unicode="&#xcb;" d="M184 0v1434h1063v-226h-811v-372h719v-226h-719v-385h821v-225h-1073zM381 1552v242h252v-242h-252zM788 1552v242h252v-242h-252z" />
<glyph unicode="&#xcc;" horiz-adv-x="649" d="M-12 1788l225 100l217 -336h-192zM199 0v1434h252v-1434h-252z" />
<glyph unicode="&#xcd;" horiz-adv-x="649" d="M199 0v1434h252v-1434h-252zM221 1552l217 336l226 -100l-250 -236h-193z" />
<glyph unicode="&#xce;" horiz-adv-x="649" d="M-27 1552l238 299h229l238 -299h-197l-157 138l-158 -138h-193zM199 0v1434h252v-1434h-252z" />
<glyph unicode="&#xcf;" horiz-adv-x="649" d="M199 0v1434h252v-1434h-252zM199 1552v242h252v-242h-252zM606 1552v242h252v-242h-252z" />
<glyph unicode="&#xd0;" horiz-adv-x="1662" d="M92 608v226h154v600h534q166 0 309 -55t242 -150t155 -227t56 -283t-56 -283.5t-155 -228.5t-242 -151.5t-309 -55.5h-534v608h-154zM496 229h284q224 0 361 136t137 350q0 215 -137 352t-361 137h-284v-370h360v-226h-360v-379z" />
<glyph unicode="&#xd1;" horiz-adv-x="1617" d="M184 0v1434h234l768 -992v992h248v-1434h-211l-791 1020v-1020h-248zM422 1573q36 132 87.5 194t141.5 62q61 0 162 -41t133 -41q42 0 65 22.5t48 79.5l137 -43q-36 -130 -87.5 -192t-141.5 -62q-61 0 -162 41t-133 41q-42 0 -65 -22.5t-48 -79.5z" />
<glyph unicode="&#xd2;" horiz-adv-x="1740" d="M121 715q0 202 95 371.5t268 270.5t388 101q161 0 301.5 -58.5t238 -158.5t153 -235.5t55.5 -286.5t-56 -287.5t-154 -237t-239.5 -160t-302.5 -59.5t-301.5 59t-237.5 159t-152.5 235.5t-55.5 286.5zM385 719q0 -140 61.5 -256.5t174 -186t251.5 -69.5t250.5 68.5 t172.5 184t61 255.5t-62 256.5t-174.5 186t-251.5 69.5t-250.5 -68.5t-172 -184t-60.5 -255.5zM516 1788l225 100l217 -336h-192z" />
<glyph unicode="&#xd3;" horiz-adv-x="1740" d="M121 715q0 202 95 371.5t268 270.5t388 101q161 0 301.5 -58.5t238 -158.5t153 -235.5t55.5 -286.5t-56 -287.5t-154 -237t-239.5 -160t-302.5 -59.5t-301.5 59t-237.5 159t-152.5 235.5t-55.5 286.5zM385 719q0 -140 61.5 -256.5t174 -186t251.5 -69.5t250.5 68.5 t172.5 184t61 255.5t-62 256.5t-174.5 186t-251.5 69.5t-250.5 -68.5t-172 -184t-60.5 -255.5zM782 1552l217 336l226 -100l-250 -236h-193z" />
<glyph unicode="&#xd4;" horiz-adv-x="1740" d="M121 715q0 202 95 371.5t268 270.5t388 101q161 0 301.5 -58.5t238 -158.5t153 -235.5t55.5 -286.5t-56 -287.5t-154 -237t-239.5 -160t-302.5 -59.5t-301.5 59t-237.5 159t-152.5 235.5t-55.5 286.5zM385 719q0 -140 61.5 -256.5t174 -186t251.5 -69.5t250.5 68.5 t172.5 184t61 255.5t-62 256.5t-174.5 186t-251.5 69.5t-250.5 -68.5t-172 -184t-60.5 -255.5zM518 1552l238 299h229l238 -299h-197l-158 138l-157 -138h-193z" />
<glyph unicode="&#xd5;" horiz-adv-x="1740" d="M121 715q0 202 95 371.5t268 270.5t388 101q161 0 301.5 -58.5t238 -158.5t153 -235.5t55.5 -286.5t-56 -287.5t-154 -237t-239.5 -160t-302.5 -59.5t-301.5 59t-237.5 159t-152.5 235.5t-55.5 286.5zM385 719q0 -140 61.5 -256.5t174 -186t251.5 -69.5t250.5 68.5 t172.5 184t61 255.5t-62 256.5t-174.5 186t-251.5 69.5t-250.5 -68.5t-172 -184t-60.5 -255.5zM483 1573q36 131 88 193.5t142 62.5q61 0 162 -41t133 -41q42 0 64.5 22.5t47.5 79.5l137 -43q-36 -130 -87.5 -192t-141.5 -62q-61 0 -162 41t-133 41q-42 0 -64.5 -22.5 t-47.5 -79.5z" />
<glyph unicode="&#xd6;" horiz-adv-x="1740" d="M121 715q0 202 95 371.5t268 270.5t388 101q161 0 301.5 -58.5t238 -158.5t153 -235.5t55.5 -286.5t-56 -287.5t-154 -237t-239.5 -160t-302.5 -59.5t-301.5 59t-237.5 159t-152.5 235.5t-55.5 286.5zM385 719q0 -140 61.5 -256.5t174 -186t251.5 -69.5t250.5 68.5 t172.5 184t61 255.5t-62 256.5t-174.5 186t-251.5 69.5t-250.5 -68.5t-172 -184t-60.5 -255.5zM541 1552v242h252v-242h-252zM948 1552v242h252v-242h-252z" />
<glyph unicode="&#xd8;" horiz-adv-x="1740" d="M104 -10l203 229q-89 97 -137.5 225.5t-48.5 270.5q0 202 95 371.5t268 270.5t388 101q234 0 418 -123l99 109h247l-202 -230q90 -97 138 -225t48 -270q0 -151 -56 -287.5t-154 -237t-239.5 -160t-302.5 -59.5q-232 0 -417 123l-99 -108h-248zM379 719q0 -169 96 -307 l655 739q-118 80 -262 80q-105 0 -197 -41t-155.5 -110.5t-100 -163t-36.5 -197.5zM610 283q118 -80 262 -80q140 0 253 69.5t175 186.5t62 256q0 169 -96 307z" />
<glyph unicode="&#xd9;" horiz-adv-x="1550" d="M162 608v826h252v-816q0 -197 95.5 -303t266.5 -106q170 0 265.5 102t95.5 297v826h252v-813q0 -314 -164.5 -479t-452.5 -165q-285 0 -447.5 162t-162.5 469zM449 1778l225 100l217 -336h-193z" />
<glyph unicode="&#xda;" horiz-adv-x="1550" d="M162 608v826h252v-816q0 -197 95.5 -303t266.5 -106q170 0 265.5 102t95.5 297v826h252v-813q0 -314 -164.5 -479t-452.5 -165q-285 0 -447.5 162t-162.5 469zM659 1542l218 336l225 -100l-250 -236h-193z" />
<glyph unicode="&#xdb;" horiz-adv-x="1550" d="M162 608v826h252v-816q0 -197 95.5 -303t266.5 -106q170 0 265.5 102t95.5 297v826h252v-813q0 -314 -164.5 -479t-452.5 -165q-285 0 -447.5 162t-162.5 469zM424 1550l238 299h229l237 -299h-196l-158 138l-158 -138h-192z" />
<glyph unicode="&#xdc;" horiz-adv-x="1550" d="M162 608v826h252v-816q0 -197 95.5 -303t266.5 -106q170 0 265.5 102t95.5 297v826h252v-813q0 -314 -164.5 -479t-452.5 -165q-285 0 -447.5 162t-162.5 469zM446 1550v242h252v-242h-252zM854 1550v242h252v-242h-252z" />
<glyph unicode="&#xdd;" horiz-adv-x="1466" d="M37 1434h297l401 -635l406 635h289l-570 -863v-571h-254v565zM637 1542l217 336l225 -100l-250 -236h-192z" />
<glyph unicode="&#xde;" horiz-adv-x="1378" d="M184 0v1434h252v-226h314q250 0 397 -130t147 -349q0 -119 -45 -213.5t-123.5 -154.5t-181.5 -91.5t-223 -31.5h-285v-238h-252zM436 463h293q141 0 225 71.5t84 188.5q0 125 -82.5 191.5t-226.5 66.5h-293v-518z" />
<glyph unicode="&#xdf;" horiz-adv-x="1269" d="M156 0v1028q0 222 131 351.5t356 129.5q204 0 322 -109.5t118 -277.5q0 -128 -61 -211.5t-164 -140.5q311 -106 311 -367q0 -198 -151.5 -306.5t-411.5 -100.5v190q151 5 233.5 62t82.5 162q0 98 -85 157.5t-231 77.5v168q232 112 232 287q0 90 -56.5 144t-150.5 54 q-102 0 -166 -71.5t-64 -190.5v-1036h-245z" />
<glyph unicode="&#xe0;" horiz-adv-x="1202" d="M82 311v4q0 169 120.5 259t317.5 90q156 0 299 -46v27q0 113 -68.5 172.5t-197.5 59.5q-146 0 -309 -68l-68 199q100 45 194.5 67.5t217.5 22.5q236 0 355.5 -118.5t119.5 -338.5v-641h-246v133q-131 -156 -350 -156q-162 0 -273.5 89t-111.5 245zM276 1454l226 100 l217 -335h-193zM328 324q0 -74 59 -117t150 -43q124 0 205 63.5t81 163.5v68q-108 43 -248 43q-117 0 -182 -45.5t-65 -128.5v-4z" />
<glyph unicode="&#xe1;" horiz-adv-x="1202" d="M82 311v4q0 169 120.5 259t317.5 90q156 0 299 -46v27q0 113 -68.5 172.5t-197.5 59.5q-146 0 -309 -68l-68 199q100 45 194.5 67.5t217.5 22.5q236 0 355.5 -118.5t119.5 -338.5v-641h-246v133q-131 -156 -350 -156q-162 0 -273.5 89t-111.5 245zM328 324q0 -74 59 -117 t150 -43q124 0 205 63.5t81 163.5v68q-108 43 -248 43q-117 0 -182 -45.5t-65 -128.5v-4zM481 1219l217 335l226 -100l-250 -235h-193z" />
<glyph unicode="&#xe2;" horiz-adv-x="1202" d="M82 311v4q0 169 120.5 259t317.5 90q156 0 299 -46v27q0 113 -68.5 172.5t-197.5 59.5q-146 0 -309 -68l-68 199q100 45 194.5 67.5t217.5 22.5q236 0 355.5 -118.5t119.5 -338.5v-641h-246v133q-131 -156 -350 -156q-162 0 -273.5 89t-111.5 245zM248 1219l237 299h230 l237 -299h-196l-158 137l-158 -137h-192zM328 324q0 -74 59 -117t150 -43q124 0 205 63.5t81 163.5v68q-108 43 -248 43q-117 0 -182 -45.5t-65 -128.5v-4z" />
<glyph unicode="&#xe3;" horiz-adv-x="1202" d="M82 311v4q0 169 120.5 259t317.5 90q156 0 299 -46v27q0 113 -68.5 172.5t-197.5 59.5q-146 0 -309 -68l-68 199q100 45 194.5 67.5t217.5 22.5q236 0 355.5 -118.5t119.5 -338.5v-641h-246v133q-131 -156 -350 -156q-162 0 -273.5 89t-111.5 245zM215 1239 q36 132 87.5 194t141.5 62q61 0 162 -41t133 -41q42 0 65 23t48 80l137 -43q-36 -130 -87.5 -192t-141.5 -62q-61 0 -162 40.5t-133 40.5q-42 0 -65 -22.5t-48 -79.5zM328 324q0 -74 59 -117t150 -43q124 0 205 63.5t81 163.5v68q-108 43 -248 43q-117 0 -182 -45.5 t-65 -128.5v-4z" />
<glyph unicode="&#xe4;" horiz-adv-x="1202" d="M82 311v4q0 169 120.5 259t317.5 90q156 0 299 -46v27q0 113 -68.5 172.5t-197.5 59.5q-146 0 -309 -68l-68 199q100 45 194.5 67.5t217.5 22.5q236 0 355.5 -118.5t119.5 -338.5v-641h-246v133q-131 -156 -350 -156q-162 0 -273.5 89t-111.5 245zM270 1219v241h252v-241 h-252zM328 324q0 -74 59 -117t150 -43q124 0 205 63.5t81 163.5v68q-108 43 -248 43q-117 0 -182 -45.5t-65 -128.5v-4zM678 1219v241h252v-241h-252z" />
<glyph unicode="&#xe5;" horiz-adv-x="1202" d="M82 311v4q0 169 120.5 259t317.5 90q156 0 299 -46v27q0 113 -68.5 172.5t-197.5 59.5q-146 0 -309 -68l-68 199q100 45 194.5 67.5t217.5 22.5q236 0 355.5 -118.5t119.5 -338.5v-641h-246v133q-131 -156 -350 -156q-162 0 -273.5 89t-111.5 245zM328 324q0 -74 59 -117 t150 -43q124 0 205 63.5t81 163.5v68q-108 43 -248 43q-117 0 -182 -45.5t-65 -128.5v-4zM367 1440q0 92 70 158.5t163 66.5t163.5 -67t70.5 -158q0 -92 -70.5 -159t-163.5 -67t-163 67t-70 159zM473 1440q0 -52 37.5 -89.5t89.5 -37.5t89.5 37.5t37.5 89.5t-37.5 89.5 t-89.5 37.5t-89.5 -37.5t-37.5 -89.5z" />
<glyph unicode="&#xe6;" horiz-adv-x="1949" d="M82 317q0 168 121 257.5t317 89.5q156 0 299 -46v27q0 113 -68.5 172.5t-197.5 59.5q-146 0 -309 -68l-68 199q100 45 193 67.5t213 22.5q279 0 381 -178q66 87 163.5 135.5t214.5 48.5q124 0 223 -47t161 -128t95 -185.5t33 -223.5q0 -42 -2 -67h-794 q21 -130 105 -202.5t204 -72.5q89 0 158.5 31.5t136.5 97.5l145 -129q-172 -203 -444 -203q-125 0 -234.5 49t-183.5 136q-221 -183 -452 -183q-187 0 -298.5 89.5t-111.5 250.5zM328 328q0 -77 59 -120.5t150 -43.5q172 0 317 135q-33 84 -41 166q-101 37 -238 37 q-117 0 -182 -45.5t-65 -128.5zM1053 616h557q-13 126 -84.5 205.5t-190.5 79.5q-114 0 -189 -78.5t-93 -206.5z" />
<glyph unicode="&#xe7;" horiz-adv-x="1169" d="M96 537q0 153 72 283t201.5 207t287.5 77q145 0 248.5 -48t184.5 -138l-154 -166q-63 66 -128 100.5t-153 34.5q-133 0 -222 -101t-89 -245q0 -148 91.5 -249.5t232.5 -101.5q82 0 149 35t131 101l150 -148q-84 -91 -177 -142.5t-223 -58.5l-133 -315l-217 90l164 242 q-185 46 -300.5 196.5t-115.5 346.5z" />
<glyph unicode="&#xe8;" horiz-adv-x="1236" d="M96 539q0 155 67 284t189 205t273 76q125 0 225.5 -47t163.5 -128t96 -185.5t33 -223.5q0 -17 -4 -67h-795q21 -130 105 -202.5t206 -72.5q88 0 157 31.5t136 97.5l146 -129q-168 -203 -443 -203q-156 0 -282 70t-199.5 199.5t-73.5 294.5zM285 1454l225 100l217 -335 h-192zM342 616h555q-13 126 -84.5 205.5t-189.5 79.5q-112 0 -187.5 -78.5t-93.5 -206.5z" />
<glyph unicode="&#xe9;" horiz-adv-x="1236" d="M96 539q0 155 67 284t189 205t273 76q125 0 225.5 -47t163.5 -128t96 -185.5t33 -223.5q0 -17 -4 -67h-795q21 -130 105 -202.5t206 -72.5q88 0 157 31.5t136 97.5l146 -129q-168 -203 -443 -203q-156 0 -282 70t-199.5 199.5t-73.5 294.5zM342 616h555 q-13 126 -84.5 205.5t-189.5 79.5q-112 0 -187.5 -78.5t-93.5 -206.5zM510 1219l217 335l225 -100l-250 -235h-192z" />
<glyph unicode="&#xea;" horiz-adv-x="1236" d="M96 539q0 155 67 284t189 205t273 76q125 0 225.5 -47t163.5 -128t96 -185.5t33 -223.5q0 -17 -4 -67h-795q21 -130 105 -202.5t206 -72.5q88 0 157 31.5t136 97.5l146 -129q-168 -203 -443 -203q-156 0 -282 70t-199.5 199.5t-73.5 294.5zM268 1219l238 299h229 l238 -299h-197l-158 137l-157 -137h-193zM342 616h555q-13 126 -84.5 205.5t-189.5 79.5q-112 0 -187.5 -78.5t-93.5 -206.5z" />
<glyph unicode="&#xeb;" horiz-adv-x="1236" d="M96 539q0 155 67 284t189 205t273 76q125 0 225.5 -47t163.5 -128t96 -185.5t33 -223.5q0 -17 -4 -67h-795q21 -130 105 -202.5t206 -72.5q88 0 157 31.5t136 97.5l146 -129q-168 -203 -443 -203q-156 0 -282 70t-199.5 199.5t-73.5 294.5zM291 1219v241h252v-241h-252z M342 616h555q-13 126 -84.5 205.5t-189.5 79.5q-112 0 -187.5 -78.5t-93.5 -206.5zM698 1219v241h252v-241h-252z" />
<glyph unicode="&#xec;" horiz-adv-x="585" d="M-43 1454l225 100l217 -335h-192zM170 0v1081h248v-1081h-248z" />
<glyph unicode="&#xed;" horiz-adv-x="585" d="M170 0v1081h248v-1081h-248zM186 1219l217 335l226 -100l-250 -235h-193z" />
<glyph unicode="&#xee;" horiz-adv-x="585" d="M170 0v1081h248v-1081h-248zM170 1219l238 299h229l237 -299h-196l-158 137l-158 -137h-192z" />
<glyph unicode="&#xef;" horiz-adv-x="585" d="M-37 1219v241h252v-241h-252zM170 0v1081h248v-1081h-248zM371 1219v241h252v-241h-252z" />
<glyph unicode="&#xf0;" horiz-adv-x="1314" d="M96 510q0 214 135.5 349.5t339.5 135.5q83 0 148.5 -20.5t136.5 -63.5l-215 293l-244 -108l-98 129l248 108l-119 162h285l49 -72l203 88l96 -129l-209 -90l182 -264q95 -134 137.5 -249.5t42.5 -250.5q0 -112 -39.5 -212t-111 -176t-179.5 -120.5t-237 -44.5 q-235 0 -393 156t-158 379zM340 504q0 -130 90 -224t227 -94q139 0 226.5 92t87.5 226q0 131 -90.5 220t-231.5 89q-139 0 -224 -87.5t-85 -221.5z" />
<glyph unicode="&#xf1;" horiz-adv-x="1269" d="M156 0v1081h247v-168q131 191 338 191q181 0 283 -112.5t102 -303.5v-688h-247v614q0 126 -61 195.5t-171 69.5q-109 0 -176.5 -72.5t-67.5 -196.5v-610h-247zM256 1239q36 132 87.5 194t141.5 62q61 0 162 -41t133 -41q42 0 65 23t48 80l137 -43q-36 -130 -87.5 -192 t-141.5 -62q-61 0 -162 40.5t-133 40.5q-42 0 -65 -22.5t-48 -79.5z" />
<glyph unicode="&#xf2;" horiz-adv-x="1345" d="M96 537q0 115 44 219.5t120 181t184 121.5t230 45t229.5 -44.5t183 -120t119 -179.5t43.5 -219t-44 -219t-120 -180.5t-184 -121.5t-231 -45q-162 0 -294 76t-206 204.5t-74 281.5zM326 1454l225 100l217 -335h-193zM344 541q0 -147 93.5 -249t236.5 -102q147 0 237 100 t90 247t-93.5 248.5t-237.5 101.5q-146 0 -236 -100t-90 -246z" />
<glyph unicode="&#xf3;" horiz-adv-x="1345" d="M96 537q0 115 44 219.5t120 181t184 121.5t230 45t229.5 -44.5t183 -120t119 -179.5t43.5 -219t-44 -219t-120 -180.5t-184 -121.5t-231 -45q-162 0 -294 76t-206 204.5t-74 281.5zM344 541q0 -147 93.5 -249t236.5 -102q147 0 237 100t90 247t-93.5 248.5t-237.5 101.5 q-146 0 -236 -100t-90 -246zM575 1219l218 335l225 -100l-250 -235h-193z" />
<glyph unicode="&#xf4;" horiz-adv-x="1345" d="M96 537q0 115 44 219.5t120 181t184 121.5t230 45t229.5 -44.5t183 -120t119 -179.5t43.5 -219t-44 -219t-120 -180.5t-184 -121.5t-231 -45q-162 0 -294 76t-206 204.5t-74 281.5zM319 1219l238 299h229l238 -299h-197l-157 137l-158 -137h-193zM344 541 q0 -147 93.5 -249t236.5 -102q147 0 237 100t90 247t-93.5 248.5t-237.5 101.5q-146 0 -236 -100t-90 -246z" />
<glyph unicode="&#xf5;" horiz-adv-x="1345" d="M96 537q0 115 44 219.5t120 181t184 121.5t230 45t229.5 -44.5t183 -120t119 -179.5t43.5 -219t-44 -219t-120 -180.5t-184 -121.5t-231 -45q-162 0 -294 76t-206 204.5t-74 281.5zM285 1239q36 132 87.5 194t141.5 62q61 0 162 -41t133 -41q42 0 65 23t48 80l137 -43 q-36 -130 -88 -192t-142 -62q-61 0 -161.5 40.5t-132.5 40.5q-42 0 -65 -22.5t-48 -79.5zM344 541q0 -147 93.5 -249t236.5 -102q147 0 237 100t90 247t-93.5 248.5t-237.5 101.5q-146 0 -236 -100t-90 -246z" />
<glyph unicode="&#xf6;" horiz-adv-x="1345" d="M96 537q0 115 44 219.5t120 181t184 121.5t230 45t229.5 -44.5t183 -120t119 -179.5t43.5 -219t-44 -219t-120 -180.5t-184 -121.5t-231 -45q-162 0 -294 76t-206 204.5t-74 281.5zM342 1219v241h252v-241h-252zM344 541q0 -147 93.5 -249t236.5 -102q147 0 237 100 t90 247t-93.5 248.5t-237.5 101.5q-146 0 -236 -100t-90 -246zM750 1219v241h251v-241h-251z" />
<glyph unicode="&#xf8;" horiz-adv-x="1345" d="M66 -10l163 182q-133 155 -133 365q0 115 44 219.5t120 181t184 121.5t230 45q171 0 309 -88l72 78h225l-166 -187q135 -154 135 -366q0 -115 -44 -219t-120 -180.5t-184 -121.5t-231 -45q-169 0 -310 88l-69 -73h-225zM338 541q0 -107 51 -189l449 492q-70 49 -168 49 q-147 0 -239.5 -101t-92.5 -251zM510 233q74 -49 164 -49q148 0 241 102t93 251q0 106 -52 190z" />
<glyph unicode="&#xf9;" horiz-adv-x="1269" d="M143 393v688h248v-614q0 -126 61 -195t171 -69q109 0 176 72t67 196v610h248v-1081h-248v168q-131 -191 -338 -191q-181 0 -283 112.5t-102 303.5zM313 1450l226 100l217 -336h-193z" />
<glyph unicode="&#xfa;" horiz-adv-x="1269" d="M143 393v688h248v-614q0 -126 61 -195t171 -69q109 0 176 72t67 196v610h248v-1081h-248v168q-131 -191 -338 -191q-181 0 -283 112.5t-102 303.5zM510 1214l217 336l225 -100l-250 -236h-192z" />
<glyph unicode="&#xfb;" horiz-adv-x="1269" d="M143 393v688h248v-614q0 -126 61 -195t171 -69q109 0 176 72t67 196v610h248v-1081h-248v168q-131 -191 -338 -191q-181 0 -283 112.5t-102 303.5zM283 1219l237 299h230l237 -299h-196l-158 137l-158 -137h-192z" />
<glyph unicode="&#xfc;" horiz-adv-x="1269" d="M143 393v688h248v-614q0 -126 61 -195t171 -69q109 0 176 72t67 196v610h248v-1081h-248v168q-131 -191 -338 -191q-181 0 -283 112.5t-102 303.5zM305 1219v241h252v-241h-252zM713 1219v241h252v-241h-252z" />
<glyph unicode="&#xfd;" horiz-adv-x="1220" d="M53 1081h264l308 -802l280 802h258l-430 -1112q-65 -166 -145.5 -234.5t-210.5 -68.5q-134 0 -256 66l84 184q74 -41 145 -41q53 0 88.5 28t65.5 97zM500 1214l217 336l225 -100l-250 -236h-192z" />
<glyph unicode="&#xfe;" d="M156 -328v1823h247v-594q144 203 367 203q97 0 187 -38t161 -107.5t113.5 -178t42.5 -239.5t-42.5 -239.5t-113 -178.5t-160.5 -108t-188 -38q-222 0 -367 191v-496h-247zM397 541q0 -154 93 -251t223 -97q131 0 220 95.5t89 252.5q0 156 -89.5 252t-219.5 96t-223 -97 t-93 -251z" />
<glyph unicode="&#xff;" horiz-adv-x="1220" d="M53 1081h264l308 -802l280 802h258l-430 -1112q-65 -166 -145.5 -234.5t-210.5 -68.5q-134 0 -256 66l84 184q74 -41 145 -41q53 0 88.5 28t65.5 97zM281 1219v241h251v-241h-251zM688 1219v241h252v-241h-252z" />
<glyph unicode="&#x152;" horiz-adv-x="2248" d="M121 715q0 151 56 283.5t155 228.5t242 151.5t309 55.5h1241v-226h-766v-372h674v-226h-674v-385h776v-225h-1251q-166 0 -309 55t-242 150t-155 227t-56 283zM385 719q0 -215 137.5 -352.5t360.5 -137.5h223v975h-223q-224 0 -361 -135.5t-137 -349.5z" />
<glyph unicode="&#x153;" horiz-adv-x="2129" d="M96 537q0 115 44.5 219.5t120.5 181t182.5 121.5t224.5 45q138 0 253 -62.5t187 -169.5q66 107 174 169.5t240 62.5q123 0 222 -47t161.5 -128t95.5 -185.5t33 -223.5q0 -17 -4 -67h-795q21 -130 105.5 -202.5t205.5 -72.5q89 0 158.5 31.5t136.5 97.5l146 -129 q-172 -203 -443 -203q-141 0 -256.5 62t-183.5 172q-72 -107 -190 -170.5t-257 -63.5q-153 0 -282 75.5t-204 205t-75 281.5zM344 541q0 -147 92.5 -249t231.5 -102q143 0 231 100.5t88 246.5q0 147 -92 248.5t-231 101.5q-143 0 -231.5 -100t-88.5 -246zM1233 616h557 q-14 126 -85 205.5t-189 79.5q-114 0 -189.5 -78.5t-93.5 -206.5z" />
<glyph unicode="&#x178;" horiz-adv-x="1466" d="M37 1434h297l401 -635l406 635h289l-570 -863v-571h-254v565zM403 1550v242h252v-242h-252zM811 1550v242h252v-242h-252z" />
<glyph unicode="&#x2c6;" horiz-adv-x="1024" d="M160 1219l237 299h230l237 -299h-196l-158 137l-158 -137h-192z" />
<glyph unicode="&#x2dc;" horiz-adv-x="1024" d="M125 1239q36 132 87.5 194t141.5 62q61 0 162 -41t133 -41q42 0 65 23t48 80l137 -43q-36 -130 -87.5 -192t-141.5 -62q-61 0 -162 40.5t-133 40.5q-42 0 -65 -22.5t-48 -79.5z" />
<glyph unicode="&#x2000;" horiz-adv-x="944" />
<glyph unicode="&#x2001;" horiz-adv-x="1888" />
<glyph unicode="&#x2002;" horiz-adv-x="944" />
<glyph unicode="&#x2003;" horiz-adv-x="1888" />
<glyph unicode="&#x2004;" horiz-adv-x="629" />
<glyph unicode="&#x2005;" horiz-adv-x="472" />
<glyph unicode="&#x2006;" horiz-adv-x="314" />
<glyph unicode="&#x2007;" horiz-adv-x="314" />
<glyph unicode="&#x2008;" horiz-adv-x="236" />
<glyph unicode="&#x2009;" horiz-adv-x="377" />
<glyph unicode="&#x200a;" horiz-adv-x="104" />
<glyph unicode="&#x2010;" horiz-adv-x="835" d="M115 506v244h606v-244h-606z" />
<glyph unicode="&#x2011;" horiz-adv-x="835" d="M115 506v244h606v-244h-606z" />
<glyph unicode="&#x2012;" horiz-adv-x="835" d="M115 506v244h606v-244h-606z" />
<glyph unicode="&#x2013;" horiz-adv-x="1081" d="M115 510v235h852v-235h-852z" />
<glyph unicode="&#x2014;" horiz-adv-x="1839" d="M115 510v235h1609v-235h-1609z" />
<glyph unicode="&#x2018;" horiz-adv-x="550" d="M129 864v240q0 167 78 247.5t237 92.5l27 -107q-189 -35 -174 -190h104v-283h-272z" />
<glyph unicode="&#x2019;" horiz-adv-x="550" d="M80 961q189 35 174 192h-104v281h272v-240q0 -166 -78.5 -247t-237.5 -93z" />
<glyph unicode="&#x201a;" horiz-adv-x="550" d="M70 -193q189 38 174 193h-105v281h273v-238q0 -166 -78.5 -247t-237.5 -93z" />
<glyph unicode="&#x201c;" horiz-adv-x="1026" d="M129 864v240q0 167 78 247.5t237 92.5l27 -107q-189 -35 -174 -190h104v-283h-272zM604 864v240q0 166 78.5 247t237.5 93l26 -107q-188 -35 -176 -190h107v-283h-273z" />
<glyph unicode="&#x201d;" horiz-adv-x="1026" d="M80 961q189 35 174 192h-104v281h272v-240q0 -166 -78.5 -247t-237.5 -93zM555 961q189 35 174 192h-104v281h272v-240q0 -167 -78 -247.5t-237 -92.5z" />
<glyph unicode="&#x201e;" horiz-adv-x="1026" d="M70 -193q189 38 174 193h-105v281h273v-238q0 -166 -78.5 -247t-237.5 -93zM545 -193q189 38 174 193h-105v281h273v-238q0 -166 -78.5 -247t-237.5 -93z" />
<glyph unicode="&#x2022;" horiz-adv-x="1005" d="M213 721q0 120 85 204.5t204 84.5q120 0 205.5 -84.5t85.5 -204.5t-85.5 -204.5t-205.5 -84.5q-119 0 -204 84.5t-85 204.5z" />
<glyph unicode="&#x2026;" horiz-adv-x="1622" d="M139 0v274h267v-274h-267zM678 0v274h266v-274h-266zM1217 0v274h266v-274h-266z" />
<glyph unicode="&#x202f;" horiz-adv-x="377" />
<glyph unicode="&#x2039;" horiz-adv-x="724" d="M90 532v17l340 450l188 -96l-270 -360l270 -363l-188 -96z" />
<glyph unicode="&#x203a;" horiz-adv-x="724" d="M109 178l270 361l-270 362l188 98l338 -450v-17l-338 -448z" />
<glyph unicode="&#x205f;" horiz-adv-x="472" />
<glyph unicode="&#x2122;" horiz-adv-x="1413" d="M53 1323v111h510v-111h-194v-520h-121v520h-195zM698 803v631h129l191 -299l190 299h125v-631h-116v448l-195 -303h-12l-195 303v-448h-117z" />
<glyph unicode="&#x25fc;" horiz-adv-x="1085" d="M0 0v1085h1085v-1085h-1085z" />
<glyph unicode="&#xfb01;" horiz-adv-x="1355" d="M74 868v207h137v78q0 176 85 265t247 89q104 0 200 -28v-209q-80 26 -145 26q-143 0 -143 -163v-60h286v-205h-282v-868h-248v868h-137zM930 1247v236h266v-236h-266zM940 0v1081h248v-1081h-248z" />
<glyph unicode="&#xfb02;" horiz-adv-x="1355" d="M74 868v207h137v78q0 176 85 265t247 89q104 0 200 -28v-209q-80 26 -145 26q-143 0 -143 -163v-60h286v-205h-282v-868h-248v868h-137zM940 0v1495h248v-1495h-248z" />
</font>
</defs>
</svg>
